# xmcd CD database file
#
# Track frame offsets:
#	150
#	11796
#	23906
#	34459
#	47659
#	59714
#	75541
#	90766
#	103151
#	116688
#	129251
#	142063
#	155602
#	171294
#	190657
#	205440
#	217948
#
# Disc length: 3173 seconds
#
# Revision: 0
# Processed by: cddbd v1.5.2PL0 Copyright (c) Steve Scherf et al.
# Submitted via: jetAudio 7
#
DISCID=ee0c6311
DTITLE=Jeann and Julio - Jeann and Julio - 100% Ao Vivo
DYEAR=1900
DGENRE=Sertanejo
TTITLE0=Solta esse cabelo
TTITLE1=Fogo de amor
TTITLE2=Baladeira
TTITLE3=Cala a boca e me beija
TTITLE4=Fazer besteirinha
TTITLE5=Oito segundos
TTITLE6=O que passou, passou
TTITLE7=Atrevida
TTITLE8=Não vou mais chorar
TTITLE9=Dançando a vanera
TTITLE10=Vai mentir pra lá
TTITLE11=É cara de pau
TTITLE12=Trato é trato
TTITLE13=Ê saudade - Pra te ter aqui
TTITLE14=Louca vontade
TTITLE15=Dá o fora
TTITLE16=Não quero dinheiro
EXTD=CD Promocional
EXTT0=
EXTT1=
EXTT2=
EXTT3=
EXTT4=
EXTT5=
EXTT6=
EXTT7=
EXTT8=
EXTT9=
EXTT10=
EXTT11=
EXTT12=
EXTT13=
EXTT14=
EXTT15=
EXTT16=
PLAYORDER=
